<?xml version="1.0" encoding="UTF-8" standalone="no"?>
<!-- Created with Inkscape (http://www.inkscape.org/) -->

<svg
   xmlns:dc="http://purl.org/dc/elements/1.1/"
   xmlns:cc="http://creativecommons.org/ns#"
   xmlns:rdf="http://www.w3.org/1999/02/22-rdf-syntax-ns#"
   xmlns:svg="http://www.w3.org/2000/svg"
   xmlns="http://www.w3.org/2000/svg"
   xmlns:xlink="http://www.w3.org/1999/xlink"
   xmlns:sodipodi="http://sodipodi.sourceforge.net/DTD/sodipodi-0.dtd"
   xmlns:inkscape="http://www.inkscape.org/namespaces/inkscape"
   width="251.49529"
   height="101.11908"
   id="svg3093"
   version="1.1"
   inkscape:version="0.48.3.1 r9886"
   sodipodi:docname="chronojump_boscosystem_logo_positiu_requadre.svg"
   inkscape:export-filename="/home/xavier/Escriptori/chronojump-todo-things/web-2012-agost/themeforest-appsquare/chronojump/appsquare-html/images/logo.png"
   inkscape:export-xdpi="72.093216"
   inkscape:export-ydpi="72.093216">
  <defs
     id="defs3095">
    <path
       inkscape:connector-curvature="0"
       sodipodi:nodetypes="cs"
       id="path10505-0-4-3-4-4-9-1-6-3-8-0-9-1-4-3-4"
       d="m 4008.6343,3896.6696 c 72.7028,-77.6519 123.6575,-111.9828 246.2221,-101.5945"
       style="fill:none;stroke:#000000;stroke-width:0.88108903px;stroke-linecap:butt;stroke-linejoin:miter;stroke-opacity:1" />
    <path
       inkscape:connector-curvature="0"
       sodipodi:nodetypes="cs"
       id="path10505-0-4-3-4-4-9-1-6-3-8-0-9-1-4-3-4-5"
       d="m 4008.6343,3896.6696 c 72.7028,-77.6519 123.6575,-111.9828 246.2221,-101.5945"
       style="fill:none;stroke:#000000;stroke-width:0.88108903px;stroke-linecap:butt;stroke-linejoin:miter;stroke-opacity:1" />
    <path
       inkscape:connector-curvature="0"
       sodipodi:nodetypes="cs"
       id="path10505-0-4-3-4-4-9-1-6-3-8-0-9-1-4-3-4-4"
       d="m 4008.6343,3896.6696 c 72.7028,-77.6519 123.6575,-111.9828 246.2221,-101.5945"
       style="fill:none;stroke:#000000;stroke-width:0.88108903px;stroke-linecap:butt;stroke-linejoin:miter;stroke-opacity:1" />
  </defs>
  <sodipodi:namedview
     id="base"
     pagecolor="#ffffff"
     bordercolor="#666666"
     borderopacity="1.0"
     inkscape:pageopacity="0"
     inkscape:pageshadow="2"
     inkscape:zoom="1.0817396"
     inkscape:cx="132.19656"
     inkscape:cy="50.586418"
     inkscape:document-units="px"
     inkscape:current-layer="capa1"
     showgrid="false"
     showguides="true"
     inkscape:guide-bbox="true"
     inkscape:snap-global="false"
     inkscape:window-width="1024"
     inkscape:window-height="716"
     inkscape:window-x="0"
     inkscape:window-y="25"
     inkscape:window-maximized="1"
     fit-margin-top="0"
     fit-margin-left="0"
     fit-margin-right="0"
     fit-margin-bottom="0" />
  <metadata
     id="metadata3098">
    <rdf:RDF>
      <cc:Work
         rdf:about="">
        <dc:format>image/svg+xml</dc:format>
        <dc:type
           rdf:resource="http://purl.org/dc/dcmitype/StillImage" />
        <dc:title></dc:title>
      </cc:Work>
    </rdf:RDF>
  </metadata>
  <g
     inkscape:label="Capa 1"
     inkscape:groupmode="layer"
     id="capa1"
     transform="translate(-255.53125,-335.72467)">
    <rect
       style="fill:#0f2554;fill-opacity:0;stroke:none"
       id="rect3863"
       width="251.44653"
       height="101.06532"
       x="255.58"
       y="335.72467"
       ry="0.70055735"
       inkscape:export-filename="/home/xavier/Escriptori/chronojump-todo-things/web-2012-agost/themeforest-appsquare/chronojump/appsquare-html/images/logo.png"
       inkscape:export-xdpi="72.093216"
       inkscape:export-ydpi="72.093216" />
    <path
       inkscape:connector-curvature="0"
       style="fill:#fffff0;fill-opacity:0;fill-rule:evenodd;stroke:#ffffff;stroke-width:1.0001123;stroke-miterlimit:4;stroke-opacity:1;stroke-dasharray:none"
       d="m 256.07976,365.11463 0,51.88068 132.67155,0 c -3.58282,-3.02918 -5.86316,-7.59229 -5.86316,-12.69309 0,-9.12025 7.29345,-16.50937 16.28532,-16.50937 8.99188,0 16.27487,7.38912 16.27487,16.50937 0,5.10053 -2.27022,9.66391 -5.85271,12.69309 l 93.66402,0 0,-51.88068 -247.17989,0 z"
       id="rect12340-7-5-57-9-74-4-9"
       inkscape:export-filename="/home/xavier/Escriptori/chronojump-todo-things/web-2012-agost/themeforest-appsquare/chronojump/appsquare-html/images/logo.png"
       inkscape:export-xdpi="72.093216"
       inkscape:export-ydpi="72.093216" />
    <text
       inkscape:export-filename="/home/xavier/Escriptori/chronojump-todo-things/web-2012-agost/themeforest-appsquare/chronojump/appsquare-html/images/logo.png"
       inkscape:export-ydpi="72.093216"
       inkscape:export-xdpi="72.093216"
       id="text8329-4-6-1-5-6-3-0-4-8-1-3-5-7-2-5-1-6-7-6-0"
       y="411.33786"
       x="257.60165"
       style="font-size:34.16213989px;font-style:normal;font-variant:normal;font-weight:normal;font-stretch:normal;fill:#ffffff;fill-opacity:1;stroke:none;font-family:MgOpen Cosmetica;-inkscape-font-specification:MgOpen Cosmetica"
       xml:space="preserve"
       transform="scale(0.98784587,1.0123037)"><tspan
         style="font-size:34.16213989px;font-style:normal;font-variant:normal;font-weight:normal;font-stretch:normal;fill:#ffffff;fill-opacity:1;font-family:MgOpen Cosmetica;-inkscape-font-specification:MgOpen Cosmetica"
         y="411.33786"
         x="257.60165"
         sodipodi:role="line"
         id="tspan47690-74-9-7">CHRON</tspan></text>
    <text
       inkscape:export-ydpi="72.093216"
       inkscape:export-xdpi="72.093216"
       id="text8329-4-1-53-0-4-9-8-2-8-5-3-7-0-85-3-1-91-7-1-4-3"
       style="font-size:40px;font-style:normal;font-weight:normal;fill:#ffffff;fill-opacity:1;stroke:none;font-family:Bitstream Vera Sans"
       xml:space="preserve"
       transform="matrix(0.33018662,0.01609631,-0.016191,0.33212923,-833.40656,-962.08329)"
       inkscape:export-filename="/home/xavier/Escriptori/chronojump-todo-things/web-2012-agost/themeforest-appsquare/chronojump/appsquare-html/images/logo.png"><textPath
         id="textPath10510-2-4-2-0-3-2-9-7-4-0-0-5-2-4-07-9-9"
         xlink:href="#path10505-0-4-3-4-4-9-1-6-3-8-0-9-1-4-3-4-4"
         style="font-size:105.3084259px;font-style:normal;font-variant:normal;font-weight:normal;font-stretch:normal;fill:#ffffff;fill-opacity:1;font-family:MgOpen Cosmetica;-inkscape-font-specification:MgOpen Cosmetica">JUMP</textPath></text>
    <path
       inkscape:connector-curvature="0"
       id="path6162-4-7-42-2-0-2-6-0-6-1-1-4-2-6-6-3-2-5-8-9-9-0-9-36"
       d="m 397.83712,385.85944 c -9.94183,0.37824 -17.91471,8.57814 -17.91471,18.61094 0,6.91743 3.78498,12.95868 9.39379,16.16897 l 18.44466,0 c 5.6088,-3.21029 9.4042,-9.25154 9.4042,-16.16897 0,-10.27358 -8.34671,-18.61094 -18.62133,-18.61094 -0.24084,0 -0.46806,-0.009 -0.70661,0 z m 0.32211,3.7097 c 0.12527,0 0.25595,0.0103 0.3845,0.0103 8.2273,0 14.89081,6.67169 14.89081,14.89084 0,8.21912 -6.66351,14.90119 -14.89081,14.90119 -8.22733,0 -14.90125,-6.6821 -14.90125,-14.90119 0,-7.96227 6.27117,-14.49181 14.14267,-14.89084 0.12695,-0.007 0.24882,-0.012 0.37408,-0.0103 z"
       style="fill:#ffffff;fill-opacity:1;stroke:none"
       inkscape:export-filename="/home/xavier/Escriptori/chronojump-todo-things/web-2012-agost/themeforest-appsquare/chronojump/appsquare-html/images/logo.png"
       inkscape:export-xdpi="72.093216"
       inkscape:export-ydpi="72.093216" />
    <rect
       transform="matrix(0.68703898,0.72662056,-0.72662056,0.68703898,0,0)"
       ry="1.0673394"
       y="-25.263784"
       x="567.65039"
       height="14.814166"
       width="2.1346788"
       id="rect11376-2-3-3-0-6-72-0-2"
       style="fill:#ffffff;fill-opacity:1;stroke:none"
       inkscape:export-filename="/home/xavier/Escriptori/chronojump-todo-things/web-2012-agost/themeforest-appsquare/chronojump/appsquare-html/images/logo.png"
       inkscape:export-xdpi="72.093216"
       inkscape:export-ydpi="72.093216" />
    <path
       inkscape:connector-curvature="0"
       id="rect10577-6-3-5-3-0-9-4-3-2-9-4-1-09-2-2-0"
       d="m 255.57981,416.25645 0,20.53334 17.10294,0 c -0.95009,-0.34952 -1.78253,-0.91288 -2.48938,-1.69378 -1.27976,-1.42114 -1.91658,-3.2868 -1.91655,-5.59055 -3e-5,-2.29631 0.63679,-4.14863 1.91655,-5.56977 1.27966,-1.42866 2.96138,-2.15103 5.03087,-2.15103 2.10608,0 3.78665,0.72237 5.05177,2.15103 1.27236,1.42114 1.90608,3.31296 1.90608,5.68409 0,1.06211 -0.16048,2.05483 -0.48952,2.9823 -0.32179,0.92003 -0.78261,1.72268 -1.37491,2.4108 -0.58502,0.68068 -1.30981,1.22465 -2.18736,1.62105 -0.1296,0.0575 -0.26234,0.10691 -0.3958,0.15586 l 9.18688,0 c -0.15423,-0.0584 -0.31244,-0.11396 -0.46871,-0.18701 -0.51201,-0.23936 -0.94987,-0.54794 -1.32284,-0.91444 -0.37294,-0.37403 -0.68882,-0.86516 -0.93744,-1.48599 -0.24135,-0.62082 -0.36768,-1.34027 -0.37497,-2.14062 l 1.74988,0 0,0.11429 c -3e-5,0.4114 0.0632,0.80777 0.18747,1.17424 0.12432,0.36654 0.32929,0.71882 0.61456,1.0703 0.28515,0.34409 0.70456,0.62191 1.26033,0.8313 0.56308,0.20943 1.23511,0.31178 2.01026,0.31178 0.59235,0 1.10894,-0.057 1.56241,-0.17667 0.45337,-0.11964 0.80649,-0.26728 1.0624,-0.44681 0.26331,-0.17953 0.4745,-0.39747 0.63539,-0.6443 0.16086,-0.25428 0.27169,-0.48971 0.32288,-0.70661 0.0511,-0.21688 0.073,-0.44648 0.073,-0.6858 0,-0.58345 -0.21439,-1.06584 -0.64579,-1.45479 -0.42418,-0.38899 -1.08276,-0.70628 -1.98944,-0.94563 l -3.57267,-0.96638 c -1.88665,-0.50115 -2.82275,-1.63855 -2.82275,-3.41878 0,-1.33884 0.45045,-2.38851 1.36452,-3.15897 0.92139,-0.77787 2.1702,-1.17424 3.74974,-1.17424 1.65268,0 2.94285,0.40511 3.86432,1.2054 0.92134,0.80035 1.39147,1.92614 1.40614,3.37721 l -1.74988,0 c -0.0146,-0.96486 -0.32318,-1.70765 -0.93742,-2.22376 -0.61427,-0.51611 -1.49762,-0.76892 -2.64566,-0.76896 -0.9726,4e-5 -1.75125,0.22958 -2.34361,0.68583 -0.58503,0.44878 -0.88534,1.03934 -0.88534,1.78732 0,0.56845 0.18012,1.01885 0.53123,1.34047 0.35101,0.32168 0.9661,0.6024 1.8436,0.84171 l 3.61436,0.99757 c 0.97986,0.26932 1.73374,0.72843 2.26024,1.37166 0.53383,0.63582 0.80202,1.40475 0.80202,2.31726 0,0.39647 -0.0435,0.78236 -0.14579,1.16383 -0.0951,0.38151 -0.27839,0.78363 -0.54164,1.19503 -0.26332,0.41136 -0.60089,0.77694 -1.01036,1.09107 -0.32101,0.24474 -0.73112,0.45024 -1.22909,0.62349 l 8.81189,0 c -0.61145,-0.22552 -1.13027,-0.51365 -1.55199,-0.88325 -0.4607,-0.4114 -0.86143,-0.87052 -1.19781,-1.37166 -0.3364,-0.50863 -0.59846,-1.06132 -0.78118,-1.65225 -0.18281,-0.59089 -0.30798,-1.15522 -0.39585,-1.69377 -0.0804,-0.54601 -0.12498,-1.0825 -0.12498,-1.62105 0,-0.46374 0.0249,-0.92871 0.0833,-1.39245 0.0585,-0.47122 0.16313,-0.96987 0.30208,-1.48598 0.14622,-0.52352 0.32226,-1.00891 0.54164,-1.46516 0.21935,-0.46374 0.51042,-0.91415 0.85409,-1.34047 0.35102,-0.42637 0.73829,-0.7815 1.177,-1.08071 0.44606,-0.30665 0.97936,-0.5583 1.59366,-0.7378 0.62155,-0.18701 1.29987,-0.28058 2.03109,-0.28058 3.13718,0 4.98863,1.61277 5.55172,4.82159 l -1.88531,0 c -0.20469,-1.06208 -0.61793,-1.85312 -1.23947,-2.36923 -0.62161,-0.52353 -1.50488,-0.78974 -2.64566,-0.78974 -1.3894,0 -2.49014,0.54982 -3.30184,1.64186 -0.81182,1.0846 -1.21872,2.5626 -1.21869,4.44751 -3e-5,1.84747 0.41937,3.32138 1.26034,4.40594 0.84828,1.08452 1.98001,1.62105 3.406,1.62105 1.18464,0 2.10009,-0.33771 2.72899,-1.01839 0.63622,-0.68812 1.06489,-1.73777 1.29157,-3.15897 l 1.8957,0 c -0.3264,2.84593 -1.47438,4.63997 -3.43725,5.40351 l 9.48894,0 c -0.95017,-0.34952 -1.78256,-0.91288 -2.48942,-1.69378 -1.27972,-1.42114 -1.91655,-3.2868 -1.91655,-5.59055 0,-2.29631 0.63683,-4.14863 1.91655,-5.56977 1.27971,-1.42866 2.95099,-2.15103 5.02047,-2.15103 2.10601,0 3.79707,0.72237 5.06217,2.15103 1.27239,1.42114 1.90613,3.31296 1.90613,5.68409 0,1.06211 -0.1605,2.05483 -0.48958,2.9823 -0.32173,0.92003 -0.78258,1.72268 -1.3749,2.4108 -0.585,0.68068 -1.30984,1.22465 -2.18735,1.62105 -0.12966,0.0575 -0.26231,0.10691 -0.39582,0.15586 l 9.18689,0 c -0.15427,-0.0584 -0.31235,-0.11396 -0.46874,-0.18701 -0.5119,-0.23936 -0.94987,-0.54794 -1.32282,-0.91444 -0.37297,-0.37403 -0.68878,-0.86516 -0.93743,-1.48599 -0.24132,-0.62082 -0.36765,-1.34027 -0.37498,-2.14062 l 1.74989,0 0,0.11429 c 0,0.4114 0.0632,0.80777 0.18748,1.17424 0.12429,0.36654 0.32937,0.71882 0.61453,1.0703 0.28525,0.34409 0.70454,0.62191 1.26034,0.8313 0.56305,0.20943 1.22469,0.31178 1.99986,0.31178 0.59229,0 1.11943,-0.057 1.5728,-0.17667 0.45347,-0.11964 0.80644,-0.26728 1.06245,-0.44681 0.26325,-0.17953 0.47451,-0.39747 0.63537,-0.6443 0.16088,-0.25428 0.2716,-0.48971 0.3229,-0.70661 0.051,-0.21688 0.0729,-0.44648 0.0729,-0.6858 -3e-5,-0.58345 -0.21434,-1.06584 -0.64578,-1.45479 -0.42414,-0.38899 -1.0931,-0.70628 -1.99987,-0.94563 l -3.56225,-0.96638 c -1.88667,-0.50115 -2.83317,-1.63855 -2.83313,-3.41878 -4e-5,-1.33884 0.4608,-2.38851 1.3749,-3.15897 0.92138,-0.77787 2.17018,-1.17424 3.74975,-1.17424 1.65264,0 2.94289,0.40511 3.8643,1.2054 0.92142,0.80035 1.39152,1.92614 1.40615,3.37721 l -1.74986,0 c -0.0146,-0.96486 -0.32323,-1.70765 -0.93744,-2.22376 -0.61429,-0.51611 -1.49757,-0.76892 -2.64565,-0.76896 -0.97257,4e-5 -1.75129,0.22958 -2.34357,0.68583 -0.58513,0.44878 -0.88541,1.03934 -0.88537,1.78732 -4e-5,0.56845 0.18018,1.01885 0.53119,1.34047 0.35111,0.32168 0.9661,0.6024 1.84364,0.84171 l 3.61431,0.99757 c 0.97998,0.26932 1.73375,0.72843 2.26028,1.37166 0.5338,0.63582 0.80205,1.40475 0.80205,2.31726 0,0.39647 -0.0538,0.78236 -0.15626,1.16383 -0.095,0.38151 -0.26791,0.78363 -0.53124,1.19503 -0.26324,0.41136 -0.60082,0.77694 -1.01032,1.09107 -0.32134,0.24504 -0.74074,0.45011 -1.23952,0.62349 l 21.01942,0 c -0.15429,-0.0584 -0.31248,-0.11396 -0.46873,-0.18701 -0.51191,-0.23936 -0.94997,-0.54794 -1.32282,-0.91444 -0.37294,-0.37403 -0.68886,-0.86516 -0.93747,-1.48599 -0.24125,-0.62082 -0.36764,-1.34027 -0.37496,-2.14062 l 1.74986,0 0,0.11429 c 0,0.4114 0.0632,0.80777 0.18753,1.17424 0.12432,0.36654 0.32932,0.71882 0.61452,1.0703 0.28518,0.34409 0.70451,0.62191 1.26035,0.8313 0.56306,0.20943 1.22461,0.31178 1.99986,0.31178 0.59228,0 1.11939,-0.057 1.57279,-0.17667 0.45337,-0.11964 0.80649,-0.26728 1.06243,-0.44681 0.26326,-0.17953 0.47447,-0.39747 0.63535,-0.6443 0.16093,-0.25428 0.27172,-0.48971 0.32291,-0.70661 0.0512,-0.21688 0.073,-0.44648 0.073,-0.6858 0,-0.58345 -0.21435,-1.06584 -0.64581,-1.45479 -0.42414,-0.38899 -1.0931,-0.70628 -1.99987,-0.94563 l -3.56221,-0.96638 c -1.88671,-0.50115 -2.83315,-1.63855 -2.83315,-3.41878 0,-1.33884 0.46074,-2.38851 1.37492,-3.15897 0.92138,-0.77787 2.17013,-1.17424 3.74973,-1.17424 1.65262,0 2.94286,0.40511 3.8643,1.2054 0.92137,0.80035 1.3915,1.92614 1.40613,3.37721 l -1.74988,0 c -0.0146,-0.96486 -0.32314,-1.70765 -0.93738,-2.22376 -0.61438,-0.51611 -1.49752,-0.76892 -2.64569,-0.76896 -0.9726,4e-5 -1.76168,0.22958 -2.35399,0.68583 -0.58511,0.44878 -0.87493,1.03934 -0.87493,1.78732 0,0.56845 0.18016,1.01885 0.5312,1.34047 0.35097,0.32168 0.96603,0.6024 1.84364,0.84171 l 3.61431,0.99757 c 0.97988,0.26932 1.73372,0.72843 2.26028,1.37166 0.53376,0.63582 0.80201,1.40475 0.80201,2.31726 0,0.39647 -0.0539,0.78236 -0.15625,1.16383 -0.095,0.38151 -0.26799,0.78363 -0.5312,1.19503 -0.26328,0.41136 -0.60087,0.77694 -1.01036,1.09107 -0.32128,0.24504 -0.74075,0.45011 -1.23949,0.62349 l 55.73571,0 c -0.44767,-0.16198 -0.88862,-0.36668 -1.31238,-0.62349 -1.14818,-0.70308 -2.05625,-1.65503 -2.72901,-2.83682 -0.67265,-1.1893 -1.0103,-2.46849 -1.01033,-3.84481 3e-5,-1.04715 0.19886,-2.04275 0.5937,-2.99271 0.40224,-0.94992 0.94173,-1.77458 1.61448,-2.46277 0.67278,-0.6956 1.47004,-1.23788 2.40611,-1.6418 0.93589,-0.4114 1.92388,-0.62348 2.94769,-0.62348 1.02376,0 1.99815,0.21208 2.9269,0.62348 0.92867,0.40392 1.71977,0.94327 2.38523,1.63143 0.67276,0.68812 1.20915,1.51281 1.60406,2.46273 0.40216,0.94996 0.60412,1.94264 0.60412,2.98234 0,1.06212 -0.20196,2.06647 -0.60412,3.02391 -0.39491,0.9574 -0.9344,1.78498 -1.61446,2.47311 -0.68015,0.68815 -1.48362,1.23792 -2.42694,1.64187 -0.16655,0.0713 -0.34066,0.12832 -0.51039,0.18701 l 80.80693,0 0,-20.53334 -247.10787,0 z m 0.0103,5.76723 5.83293,0 c 0.65815,0 1.24838,0.0878 1.76027,0.25976 0.51187,0.16457 0.92198,0.3692 1.22912,0.62348 0.30704,0.25432 0.5525,0.56001 0.74995,0.90407 0.20469,0.34406 0.34352,0.67592 0.41664,0.99757 0.0731,0.31414 0.11453,0.63728 0.11456,0.96638 -3e-5,1.50347 -0.66586,2.56186 -1.98943,3.19017 0.91406,0.3665 1.58296,0.8344 1.99986,1.40285 0.4168,0.56848 0.62496,1.30249 0.62496,2.19256 0,1.26409 -0.39145,2.28464 -1.16659,3.05506 -0.77525,0.76291 -1.79301,1.14305 -3.07273,1.14305 l -6.49954,0 0,-14.73495 z m 83.46295,0 2.26027,0 4.23928,7.18044 4.10391,-7.18044 2.18731,0 -5.41628,8.95735 0,5.7776 -1.83321,0 0,-5.7776 -5.54128,-8.95735 z m 26.4565,0 11.30132,0 0,1.67299 -4.72884,0 0,13.06196 -1.83321,0 0,-13.06196 -4.73927,0 0,-1.67299 z m 13.43659,0 9.95766,0 0,1.67299 -8.13487,0 0,4.69689 7.84321,0 0,1.65225 -7.84321,0 0,5.0502 8.50984,0 0,1.66262 -10.33263,0 0,-14.73495 z m 12.84285,0 2.5519,0 4.27057,12.83335 4.18717,-12.83335 2.54149,0 0,14.73495 -1.72902,0 0,-12.33453 -4.06224,12.33453 -1.92693,0 -4.09346,-12.33453 0,12.33453 -1.73948,0 0,-14.73495 z m 27.72725,0.99757 c -1.11886,0 -2.15645,0.28946 -3.11436,0.87287 -0.95795,0.57593 -1.71487,1.36401 -2.2707,2.35886 -0.55573,0.98729 -0.83327,2.06487 -0.83327,3.23169 0,1.1519 0.27754,2.22652 0.83327,3.22133 0.55583,0.99481 1.29611,1.78578 2.23944,2.36923 0.94335,0.58341 1.96536,0.87287 3.06229,0.87287 1.14805,0 2.20845,-0.28657 3.16644,-0.8625 0.96525,-0.57589 1.72226,-1.36112 2.27068,-2.34841 0.55577,-0.99481 0.83328,-2.08403 0.83328,-3.2733 0,-0.86765 -0.17088,-1.70109 -0.49996,-2.49393 -0.32174,-0.79286 -0.75669,-1.47118 -1.31242,-2.04708 -0.55578,-0.58344 -1.22168,-1.04545 -1.98941,-1.38207 -0.76059,-0.34402 -1.55168,-0.51956 -2.38528,-0.51956 z m -144.29211,0.42603 c -1.52824,0 -2.76474,0.55857 -3.70806,1.67302 -0.93598,1.10704 -1.40618,2.56755 -1.40614,4.38516 -4e-5,1.81757 0.47019,3.29145 1.40614,4.40594 0.94332,1.107 2.18281,1.65224 3.71851,1.65224 1.52099,0 2.7544,-0.54235 3.69763,-1.64187 0.95074,-1.10697 1.41658,-2.55006 1.41658,-4.32281 0,-1.86243 -0.45981,-3.3538 -1.39571,-4.46825 -0.93607,-1.12197 -2.17862,-1.68343 -3.72895,-1.68343 z m 42.75748,0 c -1.52836,0 -2.76478,0.55857 -3.70807,1.67302 -0.93604,1.10704 -1.39575,2.56755 -1.39575,4.38516 0,1.81757 0.45971,3.29145 1.39575,4.40594 0.94329,1.107 2.18275,1.65224 3.7185,1.65224 1.52103,0 2.75429,-0.54235 3.69765,-1.64187 0.9506,-1.10697 1.427,-2.55006 1.427,-4.32281 0,-1.86243 -0.47015,-3.3538 -1.40618,-4.46825 -0.93599,-1.12197 -2.17864,-1.68343 -3.7289,-1.68343 z m -60.5479,0.24939 0,4.68652 3.55184,0 c 0.92138,0 1.63804,-0.18133 2.1353,-0.54035 0.4972,-0.36651 0.73948,-0.96 0.73951,-1.79769 -3e-5,-0.46374 -0.0756,-0.86007 -0.22915,-1.17424 -0.14625,-0.32162 -0.36061,-0.56283 -0.64579,-0.7274 -0.27792,-0.16456 -0.574,-0.27559 -0.89578,-0.34289 -0.31443,-0.0673 -0.68728,-0.10395 -1.10409,-0.10395 l -3.55184,0 z m 158.78065,1.23659 4.05183,0 c 1.8647,0 2.8019,0.85089 2.8019,2.55627 0,0.45629 -0.0787,0.82769 -0.23958,1.11186 -0.15356,0.28428 -0.43426,0.57663 -0.84368,0.88328 0.31445,0.20946 0.5381,0.46976 0.67702,0.76897 0.14627,0.29169 0.21873,0.58411 0.21873,0.88324 0.007,0.29176 0.004,0.57826 -0.0103,0.8625 -0.0146,0.28421 0.004,0.55625 0.0625,0.81053 0.0658,0.25435 0.19839,0.4531 0.39581,0.6027 l 0,0.51957 -1.55197,0 c -0.21944,-0.5086 -0.32094,-1.02767 -0.29163,-1.55871 l 0.0103,-0.81052 c 0,-0.48615 -0.0974,-0.84302 -0.30205,-1.05992 -0.19745,-0.21694 -0.5196,-0.32215 -0.95828,-0.32215 l -2.64568,0 0,3.7513 -1.37491,0 0,-8.99892 z m 1.37491,1.27815 0,2.71213 2.55192,0 c 0.51187,0 0.88054,-0.10521 1.11449,-0.32215 0.24136,-0.22435 0.36459,-0.56206 0.36459,-1.01832 0,-0.4787 -0.12016,-0.8326 -0.35414,-1.04954 -0.23402,-0.21687 -0.60577,-0.32212 -1.12494,-0.32212 l -2.55192,0 z m -160.15556,3.81362 0,5.07098 4.47889,0 c 0.48993,3e-5 0.91236,-0.0819 1.2707,-0.23898 0.35838,-0.16457 0.62653,-0.3721 0.80206,-0.63389 0.18277,-0.26925 0.31537,-0.54129 0.3958,-0.81053 0.0805,-0.26928 0.11459,-0.5471 0.11459,-0.83131 0,-0.7779 -0.22065,-1.39633 -0.66662,-1.86007 -0.44606,-0.4637 -1.08296,-0.69617 -1.91653,-0.6962 l -4.47889,0 z"
       style="fill:#ffffff;fill-opacity:1;stroke:#ffffff;stroke-width:0;stroke-miterlimit:4;stroke-opacity:1;stroke-dasharray:none"
       inkscape:export-filename="/home/xavier/Escriptori/chronojump-todo-things/web-2012-agost/themeforest-appsquare/chronojump/appsquare-html/images/logo.png"
       inkscape:export-xdpi="72.093216"
       inkscape:export-ydpi="72.093216" />
    <rect
       style="fill:#ffffff;fill-opacity:1;stroke:none"
       id="rect3220-2"
       width="3.6663744"
       height="20.533001"
       x="500.0929"
       y="416.25699"
       inkscape:export-filename="/home/xavier/Escriptori/chronojump-todo-things/web-2012-agost/themeforest-appsquare/chronojump/appsquare-html/images/logo.png"
       inkscape:export-xdpi="72.093216"
       inkscape:export-ydpi="72.093216" />
    <text
       xml:space="preserve"
       style="font-size:24px;font-style:normal;font-variant:normal;font-weight:normal;font-stretch:normal;line-height:125%;letter-spacing:0px;word-spacing:0px;fill:#000000;fill-opacity:1;stroke:none;font-family:Liberation Sans;-inkscape-font-specification:Liberation Sans"
       x="216.39903"
       y="252.67793"
       id="text3865"
       sodipodi:linespacing="125%"><tspan
         sodipodi:role="line"
         x="216.39903"
         y="252.67793"
         id="tspan3869">logo web es blanc transparent,</tspan><tspan
         sodipodi:role="line"
         x="216.39903"
         y="282.67792"
         id="tspan3790">exportar pagina a 72ppp</tspan></text>
  </g>
</svg>
